<?xml version="1.0" encoding="UTF-8" standalone="no"?>
<!-- Generator: Adobe Illustrator 27.5.0, SVG Export Plug-In . SVG Version: 6.00 Build 0)  -->

<svg
   version="1.1"
   x="0px"
   y="0px"
   viewBox="0 0 89.744565 103.78221"
   xml:space="preserve"
   id="svg981"
   sodipodi:docname="helpdesck.svg"
   width="89.744568"
   height="103.78221"
   inkscape:version="1.1.1 (3bf5ae0d25, 2021-09-20)"
   xmlns:inkscape="http://www.inkscape.org/namespaces/inkscape"
   xmlns:sodipodi="http://sodipodi.sourceforge.net/DTD/sodipodi-0.dtd"
   xmlns:xlink="http://www.w3.org/1999/xlink"
   xmlns="http://www.w3.org/2000/svg"
   xmlns:svg="http://www.w3.org/2000/svg"><defs
   id="defs985">
	
	
	
	
	
	
	
	
	
	
	
	
	

		
		
		
		
		
		
		
		
		
		
		
		
		
		
		
		
		
		
		
		
		
		
		
		
		
			
	
		
		
		
		
		
		
			
		
		
		
		
		
		
		
		
		
		
		
		
		
	
		
		
		
		
		
		
		
		
		
		
		
		
		
		
		
		
		
		
		
		
			
		
		
			
		
		
		
		
		
		
		
		
		
		
		
		
		
		
		
		
		
		
		
		
		
	
		
		
	
		
		
		
		
		
		
		
		
		
		
		
		
		
		
		
		
		
		
		
		
		
		
		
		
		
		
	
		
		
		
		
		
		
		
		
		
		
		
		
		
		
		
		
		
		
		
		
		
		
		
	
		
		
		
		
		
		
		
		
		
		
		
		
		
		
		
		
		
		
		
		
	
		
		
		
		
		
		
		
		
		
		
		
		
		
		
		
		
		
		
		
		
		
		
		
		
		
		
		
		
	
		
		
		
		
		
		
		
		
		
		
		
		
		
		
		
		
		
		
		
		
	
		
		
		
		
		
		
		
		
		
		
		
		
		
		
		
		
		
		
		
	
		
		
		
		
		
		
		
		
		
		
		
		
		
		
		
		
		
			
		
		
		
		
		
		
		
		
		
	
		
		
		
		
		
		
		
		
		
		
		
		
		
		
		
		
		
		
		
		
		
	
		
		
		
		
		
		
		
		
		
		
		
		
		
		
		
		
		
		
		
		
		
		
		
		
	
			<defs
   id="defs268">
				<path
   id="SVGID_1_"
   d="m 418.624,299.943 c 14.062,0 25.936,7.759 29.736,18.394 h -59.471 c 3.799,-10.634 15.673,-18.394 29.735,-18.394 z" />
			</defs>
			<clipPath
   id="SVGID_00000148630801391395724340000006363040569881954485_">
				<use
   xlink:href="#SVGID_1_"
   style="overflow:visible"
   id="use270"
   x="0"
   y="0"
   width="100%"
   height="100%" />
			</clipPath>
			
		
			
			
			
		
			
			
				
		
			
			
			
		
			
			
			
		
			
			
			
		
			
			
			
		
			
			
			
		
			
			
			
		
			
			
			
		
			
			
			
		
			
			
			
		
			
			
			
			
			
			
			
			
			
			
			
			
			
			
			
			
			
			
			
		
			
			
			
		
			
			
			
		
				
				
				
			
				
				
				
			
				
				
				
			
				
				
				
			
				
				
				
			
				
				
				
			
				
				
				
			
				
				
				
			
				
				
				
			
				
				
				
			
				
					
				
					
			
				
				
				
			
				
				
				
			
				
				
				
			
					
						
					
				
					
						
					
				
					
						
					
				
					
						
					
				
					
						
					
				
					
						
					
				
					
						
					
				
					
						
					
				
					
						
					
				
					
						
					
				
					
						
					
				
					
						
					
				
					
						
					
				
					
						
					
				
					
						
					
				
					
						
					
				
					
						
					
				
					
						
					
				
					
						
					
				
					
						
					
				
					
						
					
				
					
						
					
				
					
						
					
				
					
						
					
				</defs><sodipodi:namedview
   id="namedview983"
   pagecolor="#ffffff"
   bordercolor="#999999"
   borderopacity="1"
   inkscape:pageshadow="0"
   inkscape:pageopacity="0"
   inkscape:pagecheckerboard="0"
   showgrid="false"
   inkscape:zoom="1.4382301"
   inkscape:cx="44.499139"
   inkscape:cy="58.752769"
   inkscape:window-width="1920"
   inkscape:window-height="991"
   inkscape:window-x="-9"
   inkscape:window-y="-9"
   inkscape:window-maximized="1"
   inkscape:current-layer="svg981" />

<g
   id="g3587"
   transform="translate(-248.54934,-319.34742)"><path
     style="clip-rule:evenodd;fill:#f04950;fill-rule:evenodd"
     d="m 293.41862,404.73463 c 14.062,0 25.936,7.759 29.735,18.394 h -59.471 c 3.8,-10.635 15.674,-18.394 29.736,-18.394 z"
     id="path387" /><path
     style="clip-rule:evenodd;fill:#ffffff;fill-rule:evenodd"
     d="m 293.41862,405.98063 c 6.937,0 13.344,2.213 18.512,5.951 4.026,2.912 7.299,6.754 9.483,11.198 h -2.233 c -2.028,-3.778 -4.918,-7.055 -8.418,-9.586 -4.836,-3.498 -10.839,-5.569 -17.344,-5.569 -6.506,0 -12.509,2.071 -17.344,5.569 -3.5,2.531 -6.39,5.808 -8.418,9.586 h -2.233 c 2.184,-4.444 5.457,-8.286 9.483,-11.198 5.167,-3.739 11.575,-5.951 18.512,-5.951 z"
     id="path389" /><path
     style="clip-rule:evenodd;fill:#ffc08d;fill-rule:evenodd"
     d="m 293.41862,374.32263 v 0 c 5.61,0 10.201,4.591 10.201,10.201 v 22.069 c 0,5.61 -4.59,10.201 -10.201,10.201 v 0 c -5.611,0 -10.201,-4.591 -10.201,-10.201 v -22.069 c 0,-5.61 4.59,-10.201 10.201,-10.201 z"
     id="path391" /><path
     style="clip-rule:evenodd;fill:#e6a671;fill-rule:evenodd"
     d="m 293.41862,374.32263 v 0 c 5.61,0 10.201,4.591 10.201,10.201 v 13.888 l -20.402,7.747 v -21.635 c 0,-5.61 4.59,-10.201 10.201,-10.201 z"
     id="path393" /><path
     style="clip-rule:evenodd;fill:#ffc08d;fill-rule:evenodd"
     d="m 293.41762,322.02263 c 25.357,0 32.429,17.422 32.429,38.914 0,21.492 -10.435,38.914 -32.429,38.914 -21.994,0 -32.429,-17.422 -32.429,-38.914 0,-21.492 7.072,-38.914 32.429,-38.914 z"
     id="path395" /><path
     style="clip-rule:evenodd;fill:#3f464a;fill-rule:evenodd"
     d="m 325.40662,365.19563 c -7.899,0.209 -8.543,-4.374 -8.182,-20.503 0.169,-7.546 -5.313,-11.038 -10.041,-11.038 -4.728,0 -9.47,1.006 -14.359,1.006 -4.888,0 -9.631,-1.006 -14.358,-1.006 -4.728,0 -8.147,3.151 -8.322,10.697 -0.175,7.545 0.908,22.587 -9.065,21.782 -8.203,-56.936 48.079,-51.047 53.48,-38.254 13.274,3.592 15.506,24.857 10.847,37.316 z"
     id="path397" /><path
     style="clip-rule:evenodd;fill:#ffc08d;fill-rule:evenodd"
     d="m 259.73562,356.90063 c 2.907,-0.424 5.816,3.023 6.498,7.7 0.682,4.677 -1.122,8.811 -4.029,9.235 -2.907,0.424 -5.817,-3.023 -6.498,-7.7 -0.682,-4.677 1.122,-8.812 4.029,-9.235 z"
     id="path399" /><path
     style="clip-rule:evenodd;fill:#ffc08d;fill-rule:evenodd"
     d="m 327.91162,356.90063 c -2.907,-0.424 -5.816,3.023 -6.498,7.7 -0.682,4.677 1.122,8.811 4.029,9.235 2.907,0.424 5.816,-3.023 6.498,-7.7 0.682,-4.677 -1.122,-8.812 -4.029,-9.235 z"
     id="path401" /><path
     style="clip-rule:evenodd;fill:#383737;fill-rule:evenodd"
     d="m 305.40162,368.53563 c 1.073,0 1.949,-2.284 1.949,-5.085 0,-2.8 -0.876,-5.084 -1.949,-5.084 -1.073,0 -1.949,2.284 -1.949,5.084 0,2.801 0.875,5.085 1.949,5.085 z"
     id="path403" /><path
     style="clip-rule:evenodd;fill:#383737;fill-rule:evenodd"
     d="m 280.95962,368.53563 c 1.073,0 1.949,-2.284 1.949,-5.085 0,-2.8 -0.876,-5.084 -1.949,-5.084 -1.073,0 -1.949,2.284 -1.949,5.084 0,2.801 0.876,5.085 1.949,5.085 z"
     id="path405" /><path
     style="clip-rule:evenodd;fill:#e6a671;fill-rule:evenodd"
     d="m 280.92362,380.82363 c 6.985,4.111 19.258,4.111 26.243,0 -3.521,6.899 -21.517,7.531 -26.243,0 z"
     id="path407" /><path
     style="clip-rule:evenodd;fill:#e6a671;fill-rule:evenodd"
     d="m 288.29462,387.35863 c 3.003,1.393 8.377,1.341 11.5,0 -1.543,3.373 -9.428,3.682 -11.5,0 z"
     id="path409" /><path
     style="clip-rule:evenodd;fill:#d49460;fill-rule:evenodd"
     d="m 289.99262,376.76663 c 7.367,1.303 10.367,-3.842 8.682,-8.275 3.498,6.81 0.227,11.608 -8.682,8.275 z"
     id="path411" /><path
     style="clip-rule:evenodd;fill:#3f464a;fill-rule:evenodd"
     d="m 299.99762,352.82463 c -1.253,1.042 -3.017,-1.279 -1.763,-2.321 3.561,-2.967 11.591,-3.559 15.212,-0.364 1.221,1.08 -0.01,2.289 -1.232,1.209 -2.685,-2.369 -9.586,-0.716 -12.217,1.476 z"
     id="path413" /><path
     style="clip-rule:evenodd;fill:#3f464a;fill-rule:evenodd"
     d="m 286.83962,356.40363 c 1.253,1.042 3.017,-1.279 1.763,-2.321 -3.561,-2.967 -11.591,-3.56 -15.212,-0.364 -1.221,1.08 0.01,2.289 1.231,1.209 2.686,-2.37 9.587,-0.716 12.218,1.476 z"
     id="path415" /><path
     style="clip-rule:evenodd;fill:#3f464a;fill-rule:evenodd"
     d="m 287.53862,345.59963 c 7.221,-4.099 12.509,-10.09 17.798,-15.251 6.686,-6.525 9.272,0.008 6.407,3.733 -5.492,7.14 -15.166,11.66 -24.205,11.518 z"
     id="path417" /><path
     style="clip-rule:evenodd;fill:#3f464a;fill-rule:evenodd"
     d="m 303.86362,345.68763 c 3.079,-4.29 4.993,-9.001 6.89,-13.545 2.082,-4.987 8.565,-1.1 6.012,2.556 -3.296,4.721 -7.803,8.734 -12.902,10.989 z"
     id="path419" /><path
     style="clip-rule:evenodd;fill:#3f464a;fill-rule:evenodd"
     d="m 267.92462,342.39763 c 3.494,-10.184 12.393,-11.681 18.549,-15.769 7.781,-5.169 18.38,5.002 14.873,8.13 -6.723,5.996 -24.566,9.458 -33.422,7.639 z"
     id="path421" /><path
     style="clip-rule:evenodd;fill:#3f464a;fill-rule:evenodd"
     d="m 252.40162,336.95763 c 8.299,-0.262 11.906,-2.992 17.928,-9.111 6.552,-6.658 13.127,8.235 8.856,10.196 -8.186,3.76 -18.852,3.253 -26.784,-1.085 z"
     id="path423" /><rect
     x="212.02968"
     y="384.20349"
     transform="rotate(-6.989994)"
     style="clip-rule:evenodd;fill:#29698c;fill-rule:evenodd;stroke-width:1.00003"
     width="3.2031052"
     height="21.358702"
     id="rect425" /><path
     style="clip-rule:evenodd;fill:#3f85ab;fill-rule:evenodd"
     d="m 259.81662,376.71663 c -5.457,0.669 -10.463,-3.534 -11.181,-9.388 -0.718,-5.854 3.124,-11.142 8.581,-11.811 z"
     id="path427" /><rect
     x="-334.08688"
     y="367.23346"
     transform="rotate(-83.010006)"
     style="clip-rule:evenodd;fill:#29698c;fill-rule:evenodd;stroke-width:1.00003"
     width="21.358702"
     height="3.2031052"
     id="rect431" /><path
     style="clip-rule:evenodd;fill:#3f85ab;fill-rule:evenodd"
     d="m 327.02662,376.71663 c 5.457,0.669 10.463,-3.534 11.181,-9.388 0.718,-5.854 -3.124,-11.142 -8.581,-11.811 z"
     id="path433" /><path
     style="clip-rule:evenodd;fill:#29698c;fill-rule:evenodd"
     d="m 257.28362,356.02063 c 0,-8.931 4.012,-16.761 10.517,-22.379 6.54,-5.649 15.603,-9.05 25.617,-9.05 10.037,0 19.129,3.334 25.682,8.928 6.486,5.536 10.485,13.27 10.485,22.181 h -3.239 c 0,-7.913 -3.565,-14.792 -9.346,-19.726 -5.977,-5.102 -14.324,-8.143 -23.582,-8.143 -9.226,0 -17.54,3.101 -23.504,8.253 -5.809,5.017 -9.391,11.994 -9.391,19.937 h -3.239 z"
     id="path437" /><path
     style="clip-rule:evenodd;fill:#29698c;fill-rule:evenodd"
     d="m 293.37962,396.18363 c 14.281,0 32.182,-6.332 33.852,-21.141 l -3.133,-0.77 c -1.573,12.695 -18.139,18.671 -30.719,18.671 z"
     id="path441" /><path
     style="clip-rule:evenodd;fill:#29698c;fill-rule:evenodd"
     d="m 291.35662,391.22463 h 5.895 c 1.688,0 3.07,1.381 3.07,3.07 v 0 c 0,1.689 -1.381,3.07 -3.07,3.07 h -5.895 c -1.688,0 -3.07,-1.381 -3.07,-3.07 v 0 c 10e-4,-1.689 1.382,-3.07 3.07,-3.07 z"
     id="path443" /></g>

</svg>
