<?xml version="1.0" encoding="iso-8859-1"?>
<!-- Generator: Adobe Illustrator 18.0.0, SVG Export Plug-In . SVG Version: 6.00 Build 0)  -->
<!DOCTYPE svg PUBLIC "-//W3C//DTD SVG 1.1//EN" "http://www.w3.org/Graphics/SVG/1.1/DTD/svg11.dtd">
<svg xmlns="http://www.w3.org/2000/svg" xmlns:xlink="http://www.w3.org/1999/xlink" version="1.1" id="Capa_1" x="0px" y="0px" viewBox="0 0 476.63 476.63" style="enable-background:new 0 0 476.63 476.63;" xml:space="preserve" width="512px" height="512px">
<path d="M425.832,0.036H50.791C22.741,0.036,0,22.77,0,50.826v374.979c0,28.057,22.741,50.789,50.791,50.789h375.041  c28.057,0,50.798-22.732,50.798-50.789V50.826C476.63,22.77,453.889,0.036,425.832,0.036z M187.245,340.272  c0,9.49-7.694,17.185-17.185,17.185h-16.693c-9.49,0-17.185-7.694-17.185-17.185V204.441c0-9.491,7.694-17.185,17.185-17.185h16.693  c9.49,0,17.185,7.693,17.185,17.185V340.272z M163.903,167.095c-15.26,0-27.627-12.368-27.627-27.62  c0-15.26,12.367-27.627,27.627-27.627c15.268,0,27.629,12.367,27.629,27.627C191.532,154.727,179.171,167.095,163.903,167.095z   M374.488,345.907c0,6.379-5.171,11.55-11.55,11.55h-27.962c-6.379,0-11.55-5.171-11.55-11.55v-83.951  c0-21.812-8.962-36.676-27.978-36.676c-13.156,0-19.212,7.701-23.094,16.313v16.568v87.747c0,6.378-5.17,11.549-11.549,11.549  h-22.328c-9.49,0-17.185-7.694-17.185-17.185V198.806c0-6.379,5.171-11.55,11.55-11.55h27.962c6.379,0,11.55,5.171,11.55,11.55  v3.079c9.641-7.949,22.921-13.498,39.568-13.498c34.572,0,62.565,17.543,62.565,67.318V345.907z" fill="#22a39f"/>
<g>
</g>
<g>
</g>
<g>
</g>
<g>
</g>
<g>
</g>
<g>
</g>
<g>
</g>
<g>
</g>
<g>
</g>
<g>
</g>
<g>
</g>
<g>
</g>
<g>
</g>
<g>
</g>
<g>
</g>
</svg>
