<?xml version="1.0" encoding="UTF-8" standalone="no"?>
<!-- Created with Inkscape (http://www.inkscape.org/) -->

<svg
   width="65.878609mm"
   height="39.723862mm"
   viewBox="0 0 65.878609 39.723862"
   version="1.1"
   id="svg12172"
   inkscape:version="1.1.1 (3bf5ae0d25, 2021-09-20)"
   sodipodi:docname="logo-applabfinance.svg"
   xmlns:inkscape="http://www.inkscape.org/namespaces/inkscape"
   xmlns:sodipodi="http://sodipodi.sourceforge.net/DTD/sodipodi-0.dtd"
   xmlns:xlink="http://www.w3.org/1999/xlink"
   xmlns="http://www.w3.org/2000/svg"
   xmlns:svg="http://www.w3.org/2000/svg">
  <sodipodi:namedview
     id="namedview12174"
     pagecolor="#ffffff"
     bordercolor="#999999"
     borderopacity="1"
     inkscape:pageshadow="0"
     inkscape:pageopacity="0"
     inkscape:pagecheckerboard="0"
     inkscape:document-units="mm"
     showgrid="false"
     showguides="true"
     inkscape:guide-bbox="true"
     inkscape:zoom="2.5620931"
     inkscape:cx="62.44894"
     inkscape:cy="73.182351"
     inkscape:window-width="1920"
     inkscape:window-height="991"
     inkscape:window-x="2391"
     inkscape:window-y="-9"
     inkscape:window-maximized="1"
     inkscape:current-layer="layer1"
     inkscape:snap-bbox="true"
     inkscape:bbox-paths="true"
     inkscape:bbox-nodes="true"
     inkscape:snap-bbox-edge-midpoints="true"
     inkscape:snap-bbox-midpoints="true">
    <sodipodi:guide
       position="-22.125317,34.155035"
       orientation="1,0"
       id="guide12588" />
  </sodipodi:namedview>
  <defs
     id="defs12169">
    <radialGradient
       cx="-233.82594"
       cy="-276.72632"
       r="82.101852"
       fx="-233.82594"
       fy="-276.72632"
       id="radialGradient7743-1-2-4-3-9-0-4"
       xlink:href="#linearGradient5115"
       gradientUnits="userSpaceOnUse"
       gradientTransform="matrix(0.48355569,-0.88156985,1.0698043,0.55949852,258.97554,-353.0507)" />
    <linearGradient
       id="linearGradient5115">
      <stop
         id="stop5117"
         style="stop-color:#ffffff;stop-opacity:1"
         offset="0" />
      <stop
         id="stop5119"
         style="stop-color:#ffffff;stop-opacity:0"
         offset="1" />
    </linearGradient>
    <clipPath
       id="clipPath5179-8-8-0-0-2-6-2">
      <path
         d="m -110.41283,-359.74976 a 82.101852,82.101852 0 1 1 -164.2037,0 82.101852,82.101852 0 1 1 164.2037,0 z"
         id="path5181-0-3-9-0-0-7-4"
         style="opacity:0.66;fill:#2b0000;fill-opacity:1;stroke:none" />
    </clipPath>
    <radialGradient
       cx="-233.82594"
       cy="-276.72632"
       r="82.101852"
       fx="-233.82594"
       fy="-276.72632"
       id="radialGradient7743-1-2-4-3-2-5-4-7"
       xlink:href="#linearGradient5115"
       gradientUnits="userSpaceOnUse"
       gradientTransform="matrix(0.48355569,-0.88156985,1.0698043,0.55949852,258.97554,-353.0507)" />
    <clipPath
       id="clipPath5179-8-8-0-0-6-0-8-1">
      <path
         d="m -110.41283,-359.74976 a 82.101852,82.101852 0 1 1 -164.2037,0 82.101852,82.101852 0 1 1 164.2037,0 z"
         id="path5181-0-3-9-0-5-1-9-7"
         style="opacity:0.66;fill:#2b0000;fill-opacity:1;stroke:none" />
    </clipPath>
    <radialGradient
       cx="-233.82594"
       cy="-276.72632"
       r="82.101852"
       fx="-233.82594"
       fy="-276.72632"
       id="radialGradient7743-1-2-4-3-8-0-8-4"
       xlink:href="#linearGradient5115"
       gradientUnits="userSpaceOnUse"
       gradientTransform="matrix(0.48355569,-0.88156985,1.0698043,0.55949852,258.97554,-353.0507)" />
    <clipPath
       id="clipPath5179-8-8-0-0-63-4-8-4">
      <path
         d="m -110.41283,-359.74976 a 82.101852,82.101852 0 1 1 -164.2037,0 82.101852,82.101852 0 1 1 164.2037,0 z"
         id="path5181-0-3-9-0-4-3-8-2"
         style="opacity:0.66;fill:#2b0000;fill-opacity:1;stroke:none" />
    </clipPath>
  </defs>
  <g
     inkscape:label="Calque 1"
     inkscape:groupmode="layer"
     id="layer1"
     transform="translate(-34.539024,-92.280396)">
    <rect
       style="fill:#2d2d37;fill-opacity:1;stroke-width:5.86462;stroke-linecap:round;stroke-linejoin:round;stroke-miterlimit:2"
       id="rect5432"
       width="65.878609"
       height="39.723862"
       x="34.539024"
       y="92.280396" />
    <g
       id="g8305"
       transform="translate(0.75101008,1.0164257)">
      <g
         id="g6287"
         transform="matrix(1.3940512,0,0,1.3940512,-7.9932906,8.3868881)">
        <path
           id="rect2985"
           sodipodi:nodetypes="ssscscccsscccscssss"
           style="fill:#01a3ff;fill-opacity:1;stroke-width:0.520759"
           inkscape:connector-curvature="0"
           d="m 38.938485,68.406513 c -0.18227,0 -0.32984,0.21232 -0.32984,0.3946 v 0.1562 c 0,0.12895 0.0744,0.23989 0.18189,0.29389 -0.002,0.0214 -0.003,0.0429 -0.003,0.0647 v 3.10437 c -0.0488,0.0919 -0.0964,0.18769 -0.14796,0.28259 l -2.66779,4.8257 c -0.4296,0.78975 0.38792,1.46125 0.86936,1.46125 h 6.67541 c 0.48142,0 1.30772,-0.65543 0.86936,-1.46125 l -2.66758,-4.8257 c -0.0516,-0.0949 -0.0992,-0.19066 -0.14798,-0.28259 v -3.10437 c 0,-0.0218 -0.002,-0.0434 -0.003,-0.0647 0.10752,-0.054 0.18191,-0.16495 0.18191,-0.29389 v -0.1562 c 0,-0.18228 -0.14656,-0.3946 -0.32883,-0.3946 z" />
        <g
           id="g3213"
           style="fill:#2d2d37;fill-opacity:1"
           transform="matrix(0.0328825,0,0,0.0328825,4.1431346,47.026731)">
          <path
             id="path3201"
             sodipodi:nodetypes="sssssssss"
             style="fill:#2d2d37;fill-opacity:1;stroke-width:25.8"
             inkscape:connector-curvature="0"
             d="m 1080.3,768.8 h 31.307 c 12.456,0 16.531,11.607 22.483,22.611 l 70.701,130.71 c 14.28,26.399 -10.028,38.012 -22.484,38.012 h -172.71 c -12.456,0 -35.208,-14.489 -22.483,-38.012 l 70.701,-130.71 c 5.9522,-11.004 10.028,-22.611 22.483,-22.611 z" />
          <rect
             id="rect3203"
             style="fill:#2d2d37;fill-opacity:1;stroke-width:25.8"
             ry="0"
             height="117.7"
             width="64.230003"
             y="670.48999"
             x="1063.8" />
          <rect
             id="rect3205"
             style="fill:#2d2d37;fill-opacity:1;stroke-width:25.8"
             transform="rotate(-90)"
             ry="4.3000002"
             height="75.528999"
             width="13.263"
             y="1058.1"
             x="-671.96002" />
        </g>
        <path
           id="path3201-1"
           d="m 41.536645,73.683333 1.85551,3.52723 c 0.40618,0.77218 -0.29152,1.10502 -0.65361,1.10502 h -5.02066 c -0.36209,0 -1.025,-0.422 -0.65363,-1.10502 l 1.81918,-3.34557 c 1.60829,0.63088 2.19326,-1.12266 2.65325,-0.18164 z"
           sodipodi:nodetypes="csssscc"
           style="fill:#01a3ff;fill-opacity:1;stroke-width:0.520759"
           inkscape:connector-curvature="0" />
        <circle
           r="0.59940755"
           cy="76.247459"
           cx="39.808132"
           id="path3252"
           style="fill:#2d2d37;fill-opacity:1;stroke-width:0.0201845" />
        <circle
           r="0.3542023"
           cy="75.530464"
           cx="39.201244"
           id="path3254"
           style="fill:#2d2d37;fill-opacity:1;stroke-width:0.0201845" />
        <circle
           r="0.20888983"
           cy="74.840736"
           cx="40.744686"
           id="path3256"
           style="fill:#2d2d37;fill-opacity:1;stroke-width:0.0201845" />
        <rect
           id="rect3264"
           style="fill:#01a3ff;fill-opacity:1;stroke-width:0.0201845"
           ry="0.15218878"
           height="3.3122697"
           width="0.30438161"
           y="69.154556"
           x="40.565487" />
      </g>
      <text
         xml:space="preserve"
         style="font-size:9.33317px;line-height:1.25;font-family:Poppins;-inkscape-font-specification:Poppins;fill:#ffffff;fill-opacity:1;stroke-width:0.0486102"
         x="55.05183"
         y="113.32301"
         id="text3644"><tspan
           sodipodi:role="line"
           id="tspan3642"
           style="fill:#ffffff;fill-opacity:1;stroke-width:0.0486102"
           x="55.05183"
           y="113.32301">AppLab</tspan></text>
      <text
         xml:space="preserve"
         style="font-size:4.35467px;line-height:1.25;font-family:Poppins;-inkscape-font-specification:Poppins;fill:#ffffff;fill-opacity:1;stroke-width:0.0226805"
         x="71.262718"
         y="117.56208"
         id="text3644-7"><tspan
           sodipodi:role="line"
           id="tspan3642-5"
           style="fill:#ffffff;fill-opacity:1;stroke-width:0.0226805"
           x="71.262718"
           y="117.56208">FINANCE</tspan></text>
    </g>
  </g>
</svg>
